<svg width="35" height="35" viewBox="0 0 35 35" fill="none" xmlns="http://www.w3.org/2000/svg">
<path d="M25.7031 2.05078C23.8039 2.05078 22.0626 2.65262 20.5278 3.83961C19.0564 4.97759 18.0767 6.42701 17.5 7.48098C16.9233 6.42694 15.9436 4.97759 14.4722 3.83961C12.9374 2.65262 11.1961 2.05078 9.29688 2.05078C3.99684 2.05078 0 6.38593 0 12.1347C0 18.3455 4.98634 22.5948 12.535 29.0276C13.8169 30.12 15.2698 31.3583 16.78 32.6789C16.9791 32.8532 17.2348 32.9492 17.5 32.9492C17.7652 32.9492 18.0209 32.8532 18.22 32.679C19.7303 31.3582 21.1832 30.12 22.4658 29.0269C30.0137 22.5948 35 18.3455 35 12.1347C35 6.38593 31.0032 2.05078 25.7031 2.05078Z" fill="white"/>
</svg>
